<?xml version="1.0" encoding="UTF-8" standalone="no"?>
<!DOCTYPE svg PUBLIC "-//W3C//DTD SVG 1.1//EN" "http://www.w3.org/Graphics/SVG/1.1/DTD/svg11.dtd">
<svg width="100%" height="100%" viewBox="0 0 150 150" version="1.1" xmlns="http://www.w3.org/2000/svg" xmlns:xlink="http://www.w3.org/1999/xlink" xml:space="preserve" xmlns:serif="http://www.serif.com/" style="fill-rule:evenodd;clip-rule:evenodd;stroke-linejoin:round;stroke-miterlimit:2;">
    <g transform="matrix(1,0,0,1,-340,-225)">
        <g transform="matrix(1.5,0,0,1.5,190,-675)">
            <path d="M146.667,699.89C126.493,698.56 109.572,685.241 102.969,667C102.188,664.843 101.552,662.617 101.071,660.333C100.369,656.999 100,653.542 100,650C100,646.458 100.369,643.001 101.071,639.667C101.552,637.383 102.188,635.157 102.969,633C109.572,614.759 126.493,601.44 146.667,600.11C147.768,600.037 148.88,600 150,600C151.12,600 152.232,600.037 153.333,600.11C173.507,601.44 190.428,614.759 197.031,633C197.812,635.157 198.448,637.383 198.929,639.667C199.631,643.001 200,646.458 200,650C200,653.542 199.631,656.999 198.929,660.333C198.448,662.617 197.812,664.843 197.031,667C190.428,685.241 173.507,698.56 153.333,699.89C152.232,699.963 151.12,700 150,700C148.88,700 147.768,699.963 146.667,699.89ZM146.667,607.348C144.079,608.419 141.753,610.678 139.647,613.574C136.08,618.477 133.331,625.199 131.696,633L146.667,633L146.667,607.348ZM146.667,639.667L130.606,639.667C130.208,642.988 130,646.448 130,650C130,653.552 130.208,657.012 130.606,660.333L146.667,660.333L146.667,639.667ZM146.667,667L131.696,667C133.331,674.801 136.08,681.523 139.647,686.426C141.753,689.322 144.079,691.581 146.667,692.652L146.667,667ZM153.333,692.652C155.921,691.581 158.247,689.322 160.353,686.426C163.92,681.523 166.669,674.801 168.304,667L153.333,667L153.333,692.652ZM153.333,660.333L169.394,660.333C169.792,657.012 170,653.552 170,650C170,646.448 169.792,642.988 169.394,639.667L153.333,639.667L153.333,660.333ZM153.333,633L168.304,633C166.669,625.199 163.92,618.477 160.353,613.574C158.247,610.678 155.921,608.419 153.333,607.348L153.333,633ZM107.909,639.667C107.097,642.979 106.667,646.439 106.667,650C106.667,653.561 107.097,657.021 107.909,660.333L123.905,660.333C123.53,656.999 123.333,653.542 123.333,650C123.333,646.458 123.53,643.001 123.905,639.667L107.909,639.667ZM134.288,609.608C123.434,613.837 114.699,622.318 110.134,633L124.917,633C126.74,623.556 130.038,615.432 134.288,609.608ZM110.134,667C114.699,677.682 123.434,686.163 134.288,690.392C130.038,684.568 126.74,676.444 124.917,667L110.134,667ZM189.866,633C185.301,622.318 176.566,613.837 165.712,609.608C169.962,615.432 173.26,623.556 175.083,633L189.866,633ZM192.091,660.333C192.903,657.021 193.333,653.561 193.333,650C193.333,646.439 192.903,642.979 192.091,639.667L176.095,639.667C176.47,643.001 176.667,646.458 176.667,650C176.667,653.542 176.47,656.999 176.095,660.333L192.091,660.333ZM165.712,690.392C176.566,686.163 185.301,677.682 189.866,667L175.083,667C173.26,676.444 169.962,684.568 165.712,690.392Z"/>
        </g>
    </g>
</svg>
