<?xml version="1.0" encoding="UTF-8" standalone="no"?>
<!DOCTYPE svg PUBLIC "-//W3C//DTD SVG 1.1//EN" "http://www.w3.org/Graphics/SVG/1.1/DTD/svg11.dtd">
<svg width="100%" height="100%" viewBox="0 0 150 150" version="1.1" xmlns="http://www.w3.org/2000/svg" xmlns:xlink="http://www.w3.org/1999/xlink" xml:space="preserve" xmlns:serif="http://www.serif.com/" style="fill-rule:evenodd;clip-rule:evenodd;stroke-linejoin:round;stroke-miterlimit:2;">
    <g transform="matrix(1,0,0,1,-250,-700)">
        <g transform="matrix(1.15385,0,0,1.15385,-678.846,151.923)">
            <path d="M925.016,540.409C925.006,540.274 925,540.138 925,540C925,509.645 900.355,485 870,485C839.645,485 815,509.645 815,540C815,570.355 839.645,595 870,595C872.76,595 875,597.24 875,600C875,602.76 872.76,605 870,605C834.126,605 805,575.874 805,540C805,504.126 834.126,475 870,475C905.874,475 935,504.126 935,540C935,540.138 934.994,540.274 934.984,540.409C934.994,540.543 935,540.68 935,540.817L935,548.019C935,553.318 932.895,558.401 929.148,562.148C925.401,565.895 920.318,568 915.019,568L914.97,568C909.671,568 904.588,565.895 900.841,562.148C900.113,561.419 899.446,560.64 898.845,559.818C892.531,568.986 881.962,575 870,575C850.683,575 835,559.317 835,540C835,520.683 850.683,505 870,505C889.317,505 905,520.683 905,540C905,540.295 904.996,540.589 904.989,540.883L904.989,548.019C904.989,550.666 906.041,553.205 907.912,555.077C909.784,556.948 912.323,558 914.97,558L915.019,558C917.666,558 920.205,556.948 922.077,555.077C923.948,553.205 925,550.666 925,548.019L925,540.817C925,540.68 925.006,540.543 925.016,540.409ZM870,515C856.202,515 845,526.202 845,540C845,553.798 856.202,565 870,565C883.798,565 895,553.798 895,540C895,526.202 883.798,515 870,515Z"/>
        </g>
    </g>
</svg>
