<svg width="116" height="44" viewBox="0 0 116 44" fill="none" xmlns="http://www.w3.org/2000/svg">
<path fill-rule="evenodd" clip-rule="evenodd" d="M93.9348 0C99.6681 0 105.167 2.30024 109.221 6.39429C113.276 10.4878 115.553 16.0404 115.553 21.8303C115.553 21.8303 115.553 21.8314 115.553 21.8324C115.553 27.6218 113.276 33.1744 109.221 37.2684C105.167 41.3625 99.6681 43.6622 93.9348 43.6622C73.2691 43.6622 42.2843 43.6622 21.6185 43.6622C15.8852 43.6622 10.3865 41.3625 6.33211 37.2684C2.27773 33.1744 0.000305176 27.6218 0.000305176 21.8324C0.000305176 21.8314 0.000305176 21.8303 0.000305176 21.8303C0.000305176 16.0404 2.27773 10.4878 6.33211 6.39429C10.3865 2.30024 15.8852 0 21.6185 0C42.2843 0 73.2691 0 93.9348 0Z" fill="#EAE3B7"/>
<path fill-rule="evenodd" clip-rule="evenodd" d="M20.217 40.9845C12.4956 40.4705 6.01919 35.3228 3.49195 28.2729C3.19303 27.4393 2.9496 26.579 2.76551 25.6962C2.49682 24.4077 2.35559 23.0716 2.35559 21.7027C2.35559 20.3337 2.49682 18.9976 2.76551 17.7091C2.9496 16.8264 3.19303 15.966 3.49195 15.1324C6.01919 8.0825 12.4956 2.93488 20.217 2.42085C20.6384 2.39264 21.064 2.37834 21.4926 2.37834C21.9213 2.37834 22.3469 2.39264 22.7683 2.42085C30.4897 2.93488 36.9661 8.0825 39.4933 15.1324C39.7923 15.966 40.0357 16.8264 40.2198 17.7091C40.4885 18.9976 40.6297 20.3337 40.6297 21.7027C40.6297 23.0716 40.4885 24.4077 40.2198 25.6962C40.0357 26.579 39.7923 27.4393 39.4933 28.2729C36.9661 35.3228 30.4897 40.4705 22.7683 40.9845C22.3469 41.0127 21.9213 41.027 21.4926 41.027C21.064 41.027 20.6384 41.0127 20.217 40.9845ZM20.217 5.21825C19.2264 5.63218 18.3362 6.50523 17.5301 7.6245C16.1649 9.51944 15.1127 12.1174 14.487 15.1324H20.217V5.21825ZM20.217 17.7091H14.0698C13.9174 18.9926 13.8378 20.3299 13.8378 21.7027C13.8378 23.0755 13.9174 24.4127 14.0698 25.6962H20.217V17.7091ZM20.217 28.2729H14.487C15.1127 31.2879 16.1649 33.8859 17.5301 35.7808C18.3362 36.9001 19.2264 37.7732 20.217 38.1871V28.2729ZM22.7683 38.1871C23.7589 37.7732 24.6491 36.9001 25.4552 35.7808C26.8204 33.8859 27.8726 31.2879 28.4983 28.2729H22.7683V38.1871ZM22.7683 25.6962H28.9155C29.0679 24.4127 29.1475 23.0755 29.1475 21.7027C29.1475 20.3299 29.0679 18.9926 28.9155 17.7091H22.7683V25.6962ZM22.7683 15.1324H28.4983C27.8726 12.1174 26.8204 9.51944 25.4552 7.6245C24.6491 6.50523 23.7589 5.63218 22.7683 5.21825V15.1324ZM5.38269 17.7091C5.0719 18.9891 4.90733 20.3264 4.90733 21.7027C4.90733 23.0789 5.0719 24.4162 5.38269 25.6962H11.505C11.3615 24.4077 11.2861 23.0716 11.2861 21.7027C11.2861 20.3337 11.3615 18.9976 11.505 17.7091H5.38269ZM15.479 6.09169C11.3247 7.72614 7.9815 11.0039 6.23429 15.1324H11.8924C12.5901 11.4824 13.8524 8.34259 15.479 6.09169ZM6.23429 28.2729C7.9815 32.4014 11.3247 35.6792 15.479 37.3136C13.8524 35.0627 12.5901 31.9229 11.8924 28.2729H6.23429ZM36.751 15.1324C35.0038 11.0039 31.6605 7.72614 27.5063 6.09169C29.1329 8.34259 30.3952 11.4824 31.0929 15.1324H36.751ZM37.6026 25.6962C37.9134 24.4162 38.078 23.0789 38.078 21.7027C38.078 20.3264 37.9134 18.9891 37.6026 17.7091H31.4803C31.6238 18.9976 31.6992 20.3337 31.6992 21.7027C31.6992 23.0716 31.6238 24.4077 31.4803 25.6962H37.6026ZM27.5063 37.3136C31.6605 35.6792 35.0038 32.4014 36.751 28.2729H31.0929C30.3952 31.9229 29.1329 35.0627 27.5063 37.3136Z" fill="#161719"/>
</svg>
