<svg width="680" height="175" viewBox="0 0 680 175" fill="none" xmlns="http://www.w3.org/2000/svg">
<path d="M50.1488 53.3207C64.8729 53.3207 76.8092 41.3845 76.8092 26.6604C76.8092 11.9363 64.8729 0 50.1488 0C35.4247 0 23.4885 11.9363 23.4885 26.6604C23.4885 41.3845 35.4247 53.3207 50.1488 53.3207Z" fill="#EAE3B7"/>
<path d="M0 102.998V42.7965H20.0481V62.8772H80.2414V42.7965H100.314V102.998H80.2414V82.9497H20.0481V102.998H0ZM120.362 102.998C117.581 102.998 115.222 102.014 113.278 100.054C111.318 98.0936 110.342 95.735 110.342 92.9697V42.7965H130.382V82.9497H190.583V42.7965H210.656V102.998H120.362ZM220.676 102.998V52.849C220.676 50.0919 221.66 47.7252 223.62 45.7651C225.556 43.7887 227.915 42.7965 230.696 42.7965H320.99V102.998H300.917V62.8772H280.869V102.998H260.797V62.8772H240.724V102.998H220.676ZM411.251 72.8972V62.8772H351.058V72.8972H411.251ZM331.018 102.998V52.849C331.018 50.0919 331.994 47.7252 333.954 45.7651C335.89 43.7887 338.257 42.7965 341.038 42.7965H431.332V102.998H411.251V92.9697H351.058V102.998H331.018ZM441.352 102.998V52.849C441.352 50.0919 442.328 47.7252 444.288 45.7651C446.232 43.7887 448.591 42.7965 451.372 42.7965H541.666V102.998H521.594V62.8772H461.392V102.998H441.352ZM631.927 82.9497V62.8772H571.734V82.9497H631.927ZM561.714 102.998C558.924 102.998 556.566 102.014 554.63 100.054C552.67 98.0936 551.686 95.735 551.686 92.9697V42.7965H641.98C644.745 42.7965 647.104 43.7887 649.064 45.7651C651.024 47.7252 652 50.0919 652 52.849V102.998H561.714Z" fill="#EAE3B7"/>
<path d="M10.0281 174.191C7.24661 174.191 4.87987 173.215 2.94419 171.255C0.984108 169.295 0 166.936 0 164.171V113.998H20.0481V154.151H40.1207V113.998H60.2014V154.151H80.2414V113.998H100.314V174.191H10.0281ZM120.362 174.191C117.581 174.191 115.222 173.215 113.278 171.255C111.318 169.295 110.342 166.936 110.342 164.171V124.05C110.342 121.285 111.318 118.927 113.278 116.966C115.222 114.99 117.581 113.998 120.362 113.998H210.656V134.07H130.382V139.097H150.463V149.125H130.382V154.151H210.656V174.191H120.362ZM300.917 154.151V149.125H240.724V154.151H300.917ZM300.917 139.097V134.07H240.724V139.097H300.917ZM220.676 174.191V124.05C220.676 121.269 221.66 118.91 223.62 116.966C225.572 114.99 227.939 113.998 230.696 113.998H310.97C313.735 113.998 316.094 114.99 318.054 116.966C320.014 118.927 320.99 121.285 320.99 124.05V134.07C320.99 136.852 320.014 139.219 318.054 141.154C316.094 143.114 313.735 144.099 310.97 144.099C313.735 144.099 316.094 145.083 318.054 147.067C320.014 149.027 320.99 151.386 320.99 154.151V164.171C320.99 166.936 320.014 169.295 318.054 171.255C316.094 173.215 313.735 174.191 310.97 174.191H220.676Z" fill="#EAE3B7"/>
</svg>
